<?xml version="1.0" encoding="UTF-8" standalone="no"?>
<svg
   width="512"
   height="512"
   viewBox="0 0 512 512"
   version="1.1"
   id="Multibatch"
   > 
  <path
     d="m 306,282 c -13.296,0 -24,10.704 -24,24 v 176 c 0,13.296 10.704,24 24,24 h 176 c 13.296,0 24,-10.704 24,-24 V 306 c 0,-13.296 -10.704,-24 -24,-24 z m 106,6 h 16 c 8.864,0 16,7.136 16,16 v 40 c 0,8.864 -7.136,16 -16,16 h -16 c -8.864,0 -16,-7.136 -16,-16 v -40 c 0,-8.864 7.136,-16 16,-16 z m 54,0 h 16 c 8.864,0 16,7.136 16,16 v 40 c 0,8.864 -7.136,16 -16,16 h -16 c -8.864,0 -16,-7.136 -16,-16 v -40 c 0,-8.864 7.136,-16 16,-16 z M 306,6 c -13.296,0 -24,10.704 -24,24 v 176 c 0,13.296 10.704,24 24,24 h 176 c 13.296,0 24,-10.704 24,-24 V 30 C 506,16.704 495.296,6 482,6 Z m 52,6 h 16 c 8.864,0 16,7.136 16,16 v 40 c 0,8.864 -7.136,16 -16,16 h -16 c -8.864,0 -16,-7.136 -16,-16 V 28 c 0,-8.864 7.136,-16 16,-16 z m 54,0 h 16 c 8.864,0 16,7.136 16,16 v 40 c 0,8.864 -7.136,16 -16,16 h -16 c -8.864,0 -16,-7.136 -16,-16 V 28 c 0,-8.864 7.136,-16 16,-16 z m 54,0 h 16 c 8.864,0 16,7.136 16,16 v 40 c 0,8.864 -7.136,16 -16,16 h -16 c -8.864,0 -16,-7.136 -16,-16 V 28 c 0,-8.864 7.136,-16 16,-16 z M 30,282 C 16.704,282 6,292.704 6,306 v 176 c 0,13.296 10.704,24 24,24 h 176 c 13.296,0 24,-10.704 24,-24 V 306 c 0,-13.296 -10.704,-24 -24,-24 z m 160,6 h 16 c 8.864,0 16,7.136 16,16 v 40 c 0,8.864 -7.136,16 -16,16 h -16 c -8.864,0 -16,-7.136 -16,-16 v -40 c 0,-8.864 7.136,-16 16,-16 z M 30,6 C 16.704,6 6,16.704 6,30 v 176 c 0,13.296 10.704,24 24,24 h 176 c 13.296,0 24,-10.704 24,-24 V 30 C 230,16.704 219.296,6 206,6 Z m -2,6 h 16 c 8.864,0 16,7.136 16,16 v 40 c 0,8.864 -7.136,16 -16,16 H 28 C 19.136,84 12,76.864 12,68 V 28 c 0,-8.864 7.136,-16 16,-16 z m 54,0 h 16 c 8.864,0 16,7.136 16,16 v 40 c 0,8.864 -7.136,16 -16,16 H 82 C 73.136,84 66,76.864 66,68 V 28 c 0,-8.864 7.136,-16 16,-16 z m 54,0 h 16 c 8.864,0 16,7.136 16,16 v 40 c 0,8.864 -7.136,16 -16,16 h -16 c -8.864,0 -16,-7.136 -16,-16 V 28 c 0,-8.864 7.136,-16 16,-16 z m 54,0 h 16 c 8.864,0 16,7.136 16,16 v 40 c 0,8.864 -7.136,16 -16,16 h -16 c -8.864,0 -16,-7.136 -16,-16 V 28 c 0,-8.864 7.136,-16 16,-16 z"
     />
</svg>

