<svg height="512" width="512" xmlns="http://www.w3.org/2000/svg">
  <g>
    <path
       d="m 471.7254,199.92858 c -11.88117,15.99388 -107.87099,46.06225 -126.75355,39.70497 -18.88257,-6.35728 -77.14177,-88.35739 -76.93067,-108.28029 0.2111,-19.92289 60.19475,-100.670117 79.20778,-106.625862 19.01303,-5.955745 114.34417,26.139834 125.88377,42.381876 11.5396,16.242043 10.47384,116.825426 -1.40733,132.819306 z M 244.41643,132.967 A 106.59785,108.25136 0 0 1 137.81858,241.21837 106.59785,108.25136 0 0 1 31.220732,132.967 106.59785,108.25136 0 0 1 137.81858,24.715635 106.59785,108.25136 0 0 1 244.41643,132.967 Z M 143.54832,260.01868 c 35.24442,0 135.10361,175.64429 117.48139,206.64035 C 243.4075,497.65508 43.689134,497.65507 26.06692,466.65902 8.4447162,435.66296 108.3039,260.01867 143.54832,260.01868 Z m 146.81841,7.84324 h 176.92281 c 10.04759,0 18.13645,8.21433 18.13645,18.41776 v 179.6672 c 0,10.20344 -8.08886,18.41777 -18.13645,18.41777 H 290.36673 c -10.04759,0 -18.13643,-8.21433 -18.13643,-18.41777 v -179.6672 c 0,-10.20343 8.08884,-18.41776 18.13643,-18.41776 z"
        />
  </g>
</svg>
