<?xml version="1.0" encoding="UTF-8" standalone="no"?>
<!-- Created with Inkscape (http://www.inkscape.org/) -->

<svg
   width="512"
   height="512"
   viewBox="0 0 512 512"
   version="1.1"
   id="Multibatch"
   sodipodi:docname="MultiBatch.svg"
   inkscape:version="1.4 (86a8ad7, 2024-10-11)"
   xmlns:inkscape="http://www.inkscape.org/namespaces/inkscape"
   xmlns:sodipodi="http://sodipodi.sourceforge.net/DTD/sodipodi-0.dtd"
   xmlns="http://www.w3.org/2000/svg"
   xmlns:svg="http://www.w3.org/2000/svg">
  <sodipodi:namedview
     inkscape:zoom="2"
     inkscape:cx="266.25"
     inkscape:cy="170.75"
     inkscape:window-width="3072"
     inkscape:window-height="1622"
     inkscape:window-x="3061"
     inkscape:window-y="-11"
     inkscape:window-maximized="1"
     inkscape:current-layer="Multibatch"
     id="namedview1"
     pagecolor="#ffffff"
     bordercolor="#000000"
     borderopacity="0.25"
     inkscape:showpageshadow="2"
     inkscape:pageopacity="0.0"
     inkscape:pagecheckerboard="0"
     inkscape:deskcolor="#d1d1d1" />
  <defs
     id="defs1" />
  <path
     d="m 306,282 c -13.296,0 -24,10.704 -24,24 v 176 c 0,13.296 10.704,24 24,24 h 176 c 13.296,0 24,-10.704 24,-24 V 306 c 0,-13.296 -10.704,-24 -24,-24 z m 106,6 h 16 c 8.864,0 16,7.136 16,16 v 40 c 0,8.864 -7.136,16 -16,16 h -16 c -8.864,0 -16,-7.136 -16,-16 v -40 c 0,-8.864 7.136,-16 16,-16 z m 54,0 h 16 c 8.864,0 16,7.136 16,16 v 40 c 0,8.864 -7.136,16 -16,16 h -16 c -8.864,0 -16,-7.136 -16,-16 v -40 c 0,-8.864 7.136,-16 16,-16 z M 306,6 c -13.296,0 -24,10.704 -24,24 v 176 c 0,13.296 10.704,24 24,24 h 176 c 13.296,0 24,-10.704 24,-24 V 30 C 506,16.704 495.296,6 482,6 Z m 52,6 h 16 c 8.864,0 16,7.136 16,16 v 40 c 0,8.864 -7.136,16 -16,16 h -16 c -8.864,0 -16,-7.136 -16,-16 V 28 c 0,-8.864 7.136,-16 16,-16 z m 54,0 h 16 c 8.864,0 16,7.136 16,16 v 40 c 0,8.864 -7.136,16 -16,16 h -16 c -8.864,0 -16,-7.136 -16,-16 V 28 c 0,-8.864 7.136,-16 16,-16 z m 54,0 h 16 c 8.864,0 16,7.136 16,16 v 40 c 0,8.864 -7.136,16 -16,16 h -16 c -8.864,0 -16,-7.136 -16,-16 V 28 c 0,-8.864 7.136,-16 16,-16 z M 30,282 C 16.704,282 6,292.704 6,306 v 176 c 0,13.296 10.704,24 24,24 h 176 c 13.296,0 24,-10.704 24,-24 V 306 c 0,-13.296 -10.704,-24 -24,-24 z m 160,6 h 16 c 8.864,0 16,7.136 16,16 v 40 c 0,8.864 -7.136,16 -16,16 h -16 c -8.864,0 -16,-7.136 -16,-16 v -40 c 0,-8.864 7.136,-16 16,-16 z M 30,6 C 16.704,6 6,16.704 6,30 v 176 c 0,13.296 10.704,24 24,24 h 176 c 13.296,0 24,-10.704 24,-24 V 30 C 230,16.704 219.296,6 206,6 Z m -2,6 h 16 c 8.864,0 16,7.136 16,16 v 40 c 0,8.864 -7.136,16 -16,16 H 28 C 19.136,84 12,76.864 12,68 V 28 c 0,-8.864 7.136,-16 16,-16 z m 54,0 h 16 c 8.864,0 16,7.136 16,16 v 40 c 0,8.864 -7.136,16 -16,16 H 82 C 73.136,84 66,76.864 66,68 V 28 c 0,-8.864 7.136,-16 16,-16 z m 54,0 h 16 c 8.864,0 16,7.136 16,16 v 40 c 0,8.864 -7.136,16 -16,16 h -16 c -8.864,0 -16,-7.136 -16,-16 V 28 c 0,-8.864 7.136,-16 16,-16 z m 54,0 h 16 c 8.864,0 16,7.136 16,16 v 40 c 0,8.864 -7.136,16 -16,16 h -16 c -8.864,0 -16,-7.136 -16,-16 V 28 c 0,-8.864 7.136,-16 16,-16 z"
     id="path1" />
</svg>

