<?xml version="1.0" encoding="UTF-8" standalone="no"?>
<svg
   width="512"
   height="512"
   viewBox="0 0 512 512"
   version="1.1"
   id="Multiproduct"
  >
  <g>
    <path
       d="m 446.35268,19.598331 c 14.17209,9.161571 53.88067,86.212039 53.64629,104.095189 -0.23437,17.88315 -41.9462,93.68009 -56.35267,102.40167 -14.40647,8.72158 -95.82687,7.46805 -109.99896,-1.69352 -14.1721,-9.16157 -53.88068,-86.21204 -53.6463,-104.09519 0.23438,-17.88316 41.94619,-93.680092 56.35267,-102.401672 14.40647,-8.7215813 95.82687,-7.468048 109.99897,1.693523 z M 459.1249,489.97006 C 442.9077,502.27815 340.70103,503.68139 324.16206,491.823 307.6231,479.96463 274.72525,381.69195 280.72081,362.05497 c 5.99555,-19.63697 87.87024,-81.77606 108.11466,-82.054 20.24443,-0.27795 103.7436,59.59066 110.25979,79.05587 6.51619,19.4652 -23.75316,118.60511 -39.97036,130.91322 z M 230.1456,209.14474 C 214.07881,238.89674 30.312751,239.91858 13.950236,210.34688 -2.4122734,180.7752 88.632879,12.180475 121.06218,12.000156 153.49149,11.81983 246.21239,179.39272 230.1456,209.14474 Z m -8.39,85.91239 c 19.94747,20.7328 17.0307,171.82116 -3.7021,191.76862 C 197.3207,506.77322 46.232351,503.85646 26.284882,483.12366 6.3374127,462.39086 9.2541798,311.3025 29.986978,291.35503 50.719777,271.40757 201.80813,274.32433 221.7556,295.05713 Z"
       />
  </g>
</svg>
