<svg
   width="512"
   height="512"
   viewBox="0 0 512 512"
   version="1.1"
  <g
     id="g1">
    <path
       d="m 375,54 h 14 c 2.77,0 5,2.23 5,5 v 14 c 0,2.77 -2.23,5 -5,5 h -14 c -2.77,0 -5,-2.23 -5,-5 V 59 c 0,-2.77 2.23,-5 5,-5 z m 30,0 h 14 c 2.77,0 5,2.23 5,5 v 14 c 0,2.77 -2.23,5 -5,5 h -14 c -2.77,0 -5,-2.23 -5,-5 V 59 c 0,-2.77 2.23,-5 5,-5 z m 30,0 h 14 c 2.77,0 5,2.23 5,5 v 14 c 0,2.77 -2.23,5 -5,5 h -14 c -2.77,0 -5,-2.23 -5,-5 V 59 c 0,-2.77 2.23,-5 5,-5 z m 30,0 h 14 c 2.77,0 5,2.23 5,5 v 14 c 0,2.77 -2.23,5 -5,5 h -14 c -2.77,0 -5,-2.23 -5,-5 V 59 c 0,-2.77 2.23,-5 5,-5 z M 279.05469,24 C 268.49791,24 260,32.49791 260,43.054688 V 228.94531 C 260,239.50209 268.49791,248 279.05469,248 H 464.94531 C 475.50209,248 484,239.50209 484,228.94531 V 84 H 360 V 48 H 484 V 43.054688 C 484,32.49791 475.50209,24 464.94531,24 Z M 169,54 h 14 c 2.77,0 5,2.23 5,5 v 14 c 0,2.77 -2.23,5 -5,5 h -14 c -2.77,0 -5,-2.23 -5,-5 V 59 c 0,-2.77 2.23,-5 5,-5 z m 30,0 h 14 c 2.77,0 5,2.23 5,5 v 14 c 0,2.77 -2.23,5 -5,5 h -14 c -2.77,0 -5,-2.23 -5,-5 V 59 c 0,-2.77 2.23,-5 5,-5 z m 30,0 h 14 c 2.77,0 5,2.23 5,5 v 14 c 0,2.77 -2.23,5 -5,5 h -14 c -2.77,0 -5,-2.23 -5,-5 V 59 c 0,-2.77 2.23,-5 5,-5 z M 43.054688,24 C 32.49791,24 24,32.49791 24,43.054688 V 228.94531 C 24,239.50209 32.49791,248 43.054688,248 H 228.94531 C 239.50209,248 248,239.50209 248,228.94531 V 84 H 124 V 48 H 248 V 43.054688 C 248,32.49791 239.50209,24 228.94531,24 Z M 435,290 h 14 c 2.77,0 5,2.23 5,5 v 14 c 0,2.77 -2.23,5 -5,5 h -14 c -2.77,0 -5,-2.23 -5,-5 v -14 c 0,-2.77 2.23,-5 5,-5 z m 30,0 h 14 c 2.77,0 5,2.23 5,5 v 14 c 0,2.77 -2.23,5 -5,5 h -14 c -2.77,0 -5,-2.23 -5,-5 v -14 c 0,-2.77 2.23,-5 5,-5 z M 279.05469,260 C 268.49791,260 260,268.49791 260,279.05469 V 464.94531 C 260,475.50209 268.49791,484 279.05469,484 H 464.94531 C 475.50209,484 484,475.50209 484,464.94531 V 320 H 360 v -36 h 124 v -4.94531 C 484,268.49791 475.50209,260 464.94531,260 Z M 229,290 h 14 c 2.77,0 5,2.23 5,5 v 14 c 0,2.77 -2.23,5 -5,5 h -14 c -2.77,0 -5,-2.23 -5,-5 v -14 c 0,-2.77 2.23,-5 5,-5 z M 43.05469,260 C 32.49791,260 24,268.49791 24,279.05469 V 464.94531 C 24,475.50209 32.49791,484 43.05469,484 H 228.94531 C 239.50209,484 248,475.50209 248,464.94531 V 320 H 124 v -36 h 124 v -4.94531 C 248,268.49791 239.50209,260 228.94531,260 Z"
       id="path1" />
  </g>
</svg>
